<svg width="28" height="27" viewBox="0 0 28 27" fill="none" xmlns="http://www.w3.org/2000/svg">
<g clip-path="url(#clip0_44_763)">
<path d="M13.6457 26.7466C21.182 26.7466 27.2914 20.7592 27.2914 13.3733C27.2914 5.98744 21.182 0 13.6457 0C6.10939 0 0 5.98744 0 13.3733C0 20.7592 6.10939 26.7466 13.6457 26.7466Z" fill="#F0F0F0"/>
<path d="M13.6459 -0.000366211C7.77872 -0.000366211 2.77698 3.62882 0.848938 8.72139H26.4429C24.5148 3.62882 19.5131 -0.000366211 13.6459 -0.000366211Z" fill="#D80027"/>
<path d="M13.6459 26.747C19.5131 26.747 24.5148 23.1178 26.4428 18.0253H0.848938C2.77698 23.1178 7.77872 26.747 13.6459 26.747Z" fill="black"/>
<path d="M18.392 11.9196H14.8322C14.8322 11.2774 14.301 10.7567 13.6456 10.7567C12.9903 10.7567 12.4591 11.2774 12.4591 11.9196H8.89929C8.89929 12.5619 9.47012 13.0825 10.1254 13.0825H10.0859C10.0859 13.7248 10.6171 14.2454 11.2725 14.2454C11.2725 14.8877 11.8037 15.4083 12.4591 15.4083H14.8322C15.4876 15.4083 16.0188 14.8877 16.0188 14.2454C16.6742 14.2454 17.2054 13.7248 17.2054 13.0825H17.1659C17.8212 13.0825 18.392 12.5619 18.392 11.9196Z" fill="#FF9811"/>
</g>
<defs>
<clipPath id="clip0_44_763">
<rect width="27.2914" height="26.7466" fill="white"/>
</clipPath>
</defs>
</svg>
