<svg width="28" height="27" viewBox="0 0 28 27" fill="none" xmlns="http://www.w3.org/2000/svg">
<g clip-path="url(#clip0_44_761)">
<path d="M13.6457 26.7466C21.182 26.7466 27.2914 20.7592 27.2914 13.3733C27.2914 5.98744 21.182 0 13.6457 0C6.10939 0 0 5.98744 0 13.3733C0 20.7592 6.10939 26.7466 13.6457 26.7466Z" fill="#F0F0F0"/>
<path d="M3.11911 4.8624H24.1723C23.3947 3.93959 22.4928 3.12125 21.4924 2.43091H5.79905C4.7986 3.12115 3.89676 3.93953 3.11911 4.8624Z" fill="#F0F0F0"/>
<path d="M0 13.3739C0 13.7838 0.0198822 14.1891 0.056715 14.5897H27.2347C27.2715 14.1891 27.2914 13.7838 27.2914 13.3739C27.2914 12.964 27.2715 12.5587 27.2347 12.1582H0.056715C0.0198822 12.5587 0 12.964 0 13.3739Z" fill="#F0F0F0"/>
<path d="M1.48837 19.4522H25.8037C26.2055 18.6819 26.5333 17.8684 26.7779 17.0208H0.514191C0.758801 17.8684 1.08662 18.6819 1.48837 19.4522Z" fill="#F0F0F0"/>
<path d="M5.79905 24.315H21.4923C22.4928 23.6247 23.3947 22.8064 24.1723 21.8835H3.11911C3.89676 22.8063 4.7986 23.6247 5.79905 24.315Z" fill="#F0F0F0"/>
<path d="M0.514069 9.72665H26.7779C26.5332 8.87891 26.2055 8.06544 25.8037 7.29517H1.4883C1.08655 8.06544 0.758732 8.87891 0.514069 9.72665Z" fill="#F0F0F0"/>
<path d="M6.52548 2.43161H21.4916C19.2721 0.900052 16.5658 0.00012207 13.645 0.00012207C11.8651 0.00012207 8.74504 0.900052 6.52548 2.43161Z" fill="#D80027"/>
<path d="M13.0524 7.2944H25.8033C25.3496 6.42446 24.8015 5.60957 24.1723 4.86292H13.0524V7.2944Z" fill="#D80027"/>
<path d="M13.0524 12.1569H27.2347C27.1579 11.3221 27.0036 10.509 26.7776 9.72546H13.0524V12.1569Z" fill="#D80027"/>
<path d="M0.513375 17.0217H26.7771C27.0032 16.2382 27.1575 15.4251 27.2342 14.5902H0.0562439C0.133001 15.4251 0.287261 16.2382 0.513375 17.0217Z" fill="#D80027"/>
<path d="M3.11879 21.8842H24.172C24.8012 21.1375 25.3493 20.3226 25.8031 19.4528H1.4877C1.94147 20.3227 2.48954 21.1376 3.11879 21.8842Z" fill="#D80027"/>
<path d="M13.6449 26.7472C16.5657 26.7472 19.272 25.8472 21.4915 24.3157H5.79822C8.01778 25.8472 10.724 26.7472 13.6449 26.7472Z" fill="#D80027"/>
<path d="M0.51384 9.72557C0.287727 10.5092 0.13352 11.3222 0.0567627 12.1571H13.6457V-0.000488281C7.39964 -0.000488281 2.13384 4.11243 0.51384 9.72557Z" fill="#0052B4"/>
<path d="M8.12332 3.48877L9.00683 6.15377H11.8664L9.55308 7.80099L10.4365 10.4661L8.12332 8.81903L5.81 10.4661L6.69367 7.80099L4.3804 6.15377H7.23976L8.12332 3.48877Z" fill="#F0F0F0"/>
</g>
<defs>
<clipPath id="clip0_44_761">
<rect width="27.2914" height="26.7466" fill="white"/>
</clipPath>
</defs>
</svg>
